<?xml version="1.0" encoding="UTF-8" standalone="no" ?>
<!DOCTYPE svg PUBLIC "-//W3C//DTD SVG 1.1//EN" "http://www.w3.org/Graphics/SVG/1.1/DTD/svg11.dtd">
<svg xmlns="http://www.w3.org/2000/svg" xmlns:xlink="http://www.w3.org/1999/xlink" version="1.1" width="1280" height="1024" viewBox="0 0 1280 1024" xml:space="preserve">
<desc>Created with Fabric.js 4.4.0</desc>
<defs>
</defs>
<g transform="matrix(1 0 0 1 640 512)" id="background-logo"  >
<rect style="stroke: none; stroke-width: 0; stroke-dasharray: none; stroke-linecap: butt; stroke-dashoffset: 0; stroke-linejoin: miter; stroke-miterlimit: 4; fill: rgb(255,255,255); fill-opacity: 0; fill-rule: nonzero; opacity: 1;"  paint-order="stroke"  x="-640" y="-512" rx="0" ry="0" width="1280" height="1024" />
</g>
<g transform="matrix(1.9211538461538462 0 0 1.9211538461538462 640 392.812306096761)" id="logo-logo"  >
<g style=""  paint-order="stroke"   >
		<g transform="matrix(0.9032446388472695 0 0 0.9032446388472695 0 2.842171e-14)"  >
<linearGradient id="SVGID_1_2_2_2_202418" gradientUnits="userSpaceOnUse" gradientTransform="matrix(1 0 0 1 0 0)"  x1="269.1466" y1="249.6636" x2="49.3878" y2="58.6302">
<stop offset="0%" style="stop-color:rgb(79,18,199);stop-opacity: 1"/>
<stop offset="12.68%" style="stop-color:rgb(75,22,202);stop-opacity: 1"/>
<stop offset="25.81%" style="stop-color:rgb(62,34,213);stop-opacity: 1"/>
<stop offset="39.1%" style="stop-color:rgb(42,55,230);stop-opacity: 1"/>
<stop offset="50%" style="stop-color:rgb(19,77,249);stop-opacity: 1"/>
<stop offset="64.42999999999999%" style="stop-color:rgb(19,80,249);stop-opacity: 1"/>
<stop offset="73.11%" style="stop-color:rgb(20,88,249);stop-opacity: 1"/>
<stop offset="80.25999999999999%" style="stop-color:rgb(21,102,249);stop-opacity: 1"/>
<stop offset="86.59%" style="stop-color:rgb(23,122,249);stop-opacity: 1"/>
<stop offset="92.36999999999999%" style="stop-color:rgb(26,149,250);stop-opacity: 1"/>
<stop offset="97.68%" style="stop-color:rgb(28,181,250);stop-opacity: 1"/>
<stop offset="100%" style="stop-color:rgb(30,197,250);stop-opacity: 1"/>
</linearGradient>
<path style="stroke: none; stroke-width: 1; stroke-dasharray: none; stroke-linecap: butt; stroke-dashoffset: 0; stroke-linejoin: miter; stroke-miterlimit: 4; fill: url(#SVGID_1_2_2_2_202418); fill-rule: nonzero; opacity: 1;"  paint-order="stroke"  transform=" translate(-143.70000000000002, -137.225)" d="M 249 241.7 L 251.5 244.1 C 250.2 245.5 248.8 246.9 247.5 248.2 C 246.7 249 245.9 249.79999999999998 245.1 250.6 C 245.1 250.6 245 250.7 245 250.79999999999998 L 246.4 252.1 L 244.3 254.29999999999998 L 242.8 252.89999999999998 L 242.8 252.89999999999998 L 240.3 250.49999999999997 C 243.2 247.7 246.1 244.8 249 241.7 z M 259.6 235.2 C 260.1 234.5 260.70000000000005 233.89999999999998 261.3 233.2 L 258.7 230.79999999999998 C 256.2 233.79999999999998 253.7 236.7 251 239.49999999999997 L 253.5 241.89999999999998 C 254 241.29999999999998 254.6 240.7 255.1 240.09999999999997 L 258.5 243.39999999999998 L 260.6 241.2 L 257.1 237.89999999999998 C 258.1 236.9 258.9 236.1 259.6 235.2 z M 252.7 225.1 L 250.6 227.29999999999998 L 249.79999999999998 226.49999999999997 C 244.6 232.59999999999997 238.99999999999997 238.49999999999997 233.1 243.89999999999998 L 235.7 246.29999999999998 C 237.39999999999998 244.7 239.1 243.1 240.79999999999998 241.39999999999998 C 242.1 240.09999999999997 243.39999999999998 238.79999999999998 244.6 237.49999999999997 L 242.9 235.89999999999998 L 245 233.7 L 246.7 235.29999999999998 C 249.29999999999998 232.49999999999997 251.89999999999998 229.49999999999997 254.39999999999998 226.6 L 252.7 225.1 z M 253.9 141.9 C 253.6 146.9 253.1 151.9 252.1 156.8 C 249.6 170.60000000000002 244.5 184 236.79999999999998 196.3 C 235.1 199.10000000000002 233.2 201.9 231.1 204.70000000000002 L 233.2 206.70000000000002 C 230.79999999999998 209.70000000000002 228.2 212.70000000000002 225.5 215.50000000000003 L 223 213.10000000000002 C 225.7 210.20000000000002 228.2 207.3 230.7 204.3 L 226.2 200.10000000000002 C 222.2 205.00000000000003 218 209.70000000000002 213.5 214.20000000000002 C 211.5 216.10000000000002 209.6 218.00000000000003 207.6 219.8 L 212.1 224.10000000000002 C 215.1 221.3 218.1 218.40000000000003 220.9 215.40000000000003 L 223.4 217.80000000000004 C 222.4 218.90000000000003 221.3 220.00000000000003 220.20000000000002 221.00000000000003 C 218.3 222.90000000000003 216.4 224.70000000000002 214.50000000000003 226.50000000000003 L 212.40000000000003 224.50000000000003 C 209.90000000000003 226.70000000000002 207.30000000000004 228.70000000000002 204.60000000000002 230.50000000000003 C 204.50000000000003 230.50000000000003 204.50000000000003 230.60000000000002 204.40000000000003 230.70000000000002 C 192.60000000000002 239.00000000000003 179.50000000000003 244.9 165.90000000000003 248.3 C 161.20000000000005 249.5 156.30000000000004 250.4 151.40000000000003 250.9 C 144.20000000000005 251.8 136.90000000000003 252 129.70000000000005 251.5 C 126.30000000000004 251.3 122.80000000000004 250.9 119.40000000000005 250.4 C 113.80000000000005 249.6 108.30000000000005 248.3 102.80000000000004 246.6 C 100.10000000000004 245.79999999999998 97.40000000000003 244.9 94.70000000000005 243.79999999999998 C 94.70000000000005 243.79999999999998 94.70000000000005 243.79999999999998 94.70000000000005 243.79999999999998 C 90.20000000000005 242.1 85.80000000000004 239.99999999999997 81.50000000000004 237.7 C 79.30000000000004 236.5 77.20000000000005 235.29999999999998 75.10000000000004 233.89999999999998 C 71.50000000000004 231.59999999999997 68.00000000000004 229.09999999999997 64.60000000000004 226.39999999999998 C 62.900000000000034 225.09999999999997 61.20000000000004 223.59999999999997 59.500000000000036 222.09999999999997 C 58.70000000000004 221.49999999999997 58.000000000000036 220.79999999999995 57.30000000000003 220.19999999999996 C 55.000000000000036 217.99999999999997 52.80000000000003 215.79999999999995 50.80000000000003 213.49999999999997 C 49.30000000000003 211.89999999999998 48.000000000000036 210.29999999999998 46.70000000000003 208.69999999999996 C 44.30000000000003 205.69999999999996 42.00000000000003 202.69999999999996 40.00000000000003 199.59999999999997 C 38.90000000000003 197.89999999999998 37.800000000000026 196.19999999999996 36.800000000000026 194.49999999999997 C 34.90000000000003 191.29999999999998 33.200000000000024 188.09999999999997 31.700000000000024 184.69999999999996 C 30.900000000000023 182.99999999999997 30.100000000000023 181.29999999999995 29.400000000000023 179.49999999999997 C 28.000000000000025 176.19999999999996 26.800000000000022 172.89999999999998 25.800000000000022 169.39999999999998 C 25.20000000000002 167.59999999999997 24.70000000000002 165.79999999999998 24.300000000000022 163.89999999999998 C 23.400000000000023 160.49999999999997 22.800000000000022 156.99999999999997 22.20000000000002 153.59999999999997 C 21.90000000000002 151.69999999999996 21.60000000000002 149.89999999999998 21.40000000000002 147.99999999999997 C 21.00000000000002 144.49999999999997 20.80000000000002 140.99999999999997 20.70000000000002 137.49999999999997 C 20.70000000000002 135.59999999999997 20.70000000000002 133.69999999999996 20.70000000000002 131.69999999999996 C 20.800000000000022 127.99999999999996 21.10000000000002 124.29999999999995 21.60000000000002 120.69999999999996 C 21.80000000000002 118.69999999999996 22.10000000000002 116.69999999999996 22.500000000000018 114.69999999999996 C 22.500000000000018 114.69999999999996 22.500000000000018 114.69999999999996 22.500000000000018 114.69999999999996 C 23.200000000000017 110.79999999999995 24.000000000000018 106.89999999999996 25.200000000000017 103.09999999999997 C 25.80000000000002 100.79999999999997 26.500000000000018 98.59999999999997 27.30000000000002 96.49999999999997 C 28.90000000000002 91.79999999999997 30.90000000000002 87.29999999999997 33.100000000000016 82.79999999999997 C 34.600000000000016 79.69999999999997 36.40000000000001 76.69999999999997 38.20000000000002 73.69999999999997 C 42.20000000000002 67.19999999999997 46.90000000000002 61.09999999999997 52.30000000000002 55.299999999999976 C 57.70000000000002 49.59999999999997 63.500000000000014 44.59999999999998 69.60000000000002 40.199999999999974 C 72.50000000000003 38.09999999999997 75.50000000000003 36.199999999999974 78.50000000000003 34.49999999999997 C 82.70000000000003 31.99999999999997 87.10000000000002 29.799999999999972 91.60000000000002 27.89999999999997 C 91.60000000000002 27.89999999999997 91.60000000000002 27.89999999999997 91.60000000000002 27.89999999999997 C 93.80000000000003 26.99999999999997 96.00000000000003 26.09999999999997 98.20000000000002 25.39999999999997 C 102.00000000000001 23.99999999999997 105.80000000000001 22.89999999999997 109.60000000000002 21.99999999999997 C 111.60000000000002 21.49999999999997 113.60000000000002 21.099999999999973 115.60000000000002 20.69999999999997 C 119.20000000000002 20.09999999999997 122.70000000000002 19.49999999999997 126.40000000000002 19.19999999999997 C 128.3 18.99999999999997 130.20000000000002 18.89999999999997 132.20000000000002 18.799999999999972 C 135.70000000000002 18.599999999999973 139.20000000000002 18.599999999999973 142.70000000000002 18.799999999999972 C 144.60000000000002 18.899999999999974 146.50000000000003 18.99999999999997 148.3 19.19999999999997 C 151.8 19.49999999999997 155.3 19.99999999999997 158.8 20.69999999999997 C 160.60000000000002 20.99999999999997 162.4 21.39999999999997 164.20000000000002 21.799999999999972 C 167.60000000000002 22.599999999999973 171.10000000000002 23.599999999999973 174.4 24.69999999999997 C 176.20000000000002 25.299999999999972 178 25.99999999999997 179.9 26.69999999999997 C 183.3 27.99999999999997 186.70000000000002 29.49999999999997 190 31.19999999999997 C 191.8 32.09999999999997 193.5 32.99999999999997 195.2 33.99999999999997 C 198.5 35.89999999999997 201.7 37.89999999999997 204.79999999999998 40.199999999999974 C 206.49999999999997 41.39999999999998 208.2 42.699999999999974 209.89999999999998 43.99999999999997 C 212.29999999999998 45.99999999999997 214.7 47.99999999999997 217.09999999999997 50.199999999999974 C 217.69999999999996 50.799999999999976 218.39999999999998 51.39999999999998 218.99999999999997 52.09999999999997 C 220.59999999999997 53.59999999999997 222.19999999999996 55.299999999999976 223.69999999999996 56.99999999999997 C 226.69999999999996 60.199999999999974 229.39999999999995 63.59999999999997 231.89999999999995 67.09999999999997 C 233.39999999999995 69.09999999999997 234.69999999999996 71.19999999999996 235.99999999999994 73.29999999999997 C 238.59999999999994 77.39999999999996 240.89999999999995 81.69999999999997 242.89999999999995 86.09999999999997 C 244.09999999999994 88.69999999999996 245.19999999999996 91.19999999999996 246.09999999999994 93.89999999999996 C 248.19999999999993 99.29999999999997 249.79999999999993 104.79999999999997 250.99999999999994 110.29999999999995 C 251.79999999999995 113.59999999999995 252.39999999999995 116.99999999999996 252.79999999999995 120.39999999999995 C 254.1 127.5 254.3 134.7 253.9 141.9 z M 212 126 L 219.6 122.2 L 223.6 120.2 L 223.6 120.10000000000001 L 220.29999999999998 119.30000000000001 L 214.1 117.80000000000001 C 213.5 120.6 212.8 123.3 212 126 z M 204.8 115.7 C 203.5 121.3 201.70000000000002 126.8 199.60000000000002 132.2 L 207.8 128.2 C 209 124.6 210.10000000000002 120.99999999999999 210.9 117.19999999999999 L 204.8 115.7 z M 195.4 113.5 C 193.3 122.4 190.1 131 185.9 138.9 L 195 134.4 C 197.7 128.1 199.9 121.60000000000001 201.5 114.9 L 195.4 113.5 z M 88.7 92.9 C 90.4 92.30000000000001 91.8 91 92.2 89.2 L 87.2 88 L 88.7 92.9 z M 90.8 100 C 95 98.6 98.3 95.2 99.39999999999999 90.9 L 95.6 90 C 94.8 92.9 92.5 95.3 89.69999999999999 96.2 L 90.8 100 z M 93.3 108.1 C 100.39999999999999 105.89999999999999 105.89999999999999 100.1 107.7 92.89999999999999 L 102.7 91.69999999999999 C 101.3 97.19999999999999 97.2 101.49999999999999 91.8 103.19999999999999 L 93.3 108.1 z M 96.1 117.4 C 106.5 114.2 114.5 105.7 117.1 95.10000000000001 L 111 93.7 C 108.9 102.10000000000001 102.5 108.9 94.3 111.4 L 96.1 117.4 z M 98.9 126.6 C 103.7 125.1 108.2 122.69999999999999 112.10000000000001 119.6 C 115.30000000000001 117.1 118.10000000000001 114.1 120.50000000000001 110.8 C 123.30000000000001 106.7 125.40000000000002 102.1 126.60000000000001 97.2 L 120.50000000000001 95.8 C 117.60000000000001 107.6 108.60000000000001 117 97.20000000000002 120.6 L 98.9 126.6 z M 101.6 135.8 C 103.69999999999999 135.10000000000002 105.8 134.3 107.69999999999999 133.4 C 119.6 128 129.1 118 133.79999999999998 105.7 C 134.6 103.7 135.29999999999998 101.60000000000001 135.79999999999998 99.5 L 129.7 98.1 C 128.89999999999998 101.5 127.69999999999999 104.69999999999999 126.1 107.69999999999999 C 122.3 115.19999999999999 116.39999999999999 121.39999999999999 109.19999999999999 125.69999999999999 C 106.19999999999999 127.49999999999999 103.1 128.89999999999998 99.79999999999998 129.89999999999998 L 101.6 135.8 z M 104.4 145.1 C 105.9 144.6 107.4 144.1 108.9 143.5 C 125.5 136.9 138.5 123.2 144 106.2 C 144.5 104.7 144.9 103.2 145.2 101.7 L 139.1 100.3 C 138.6 102.1 138.2 103.8 137.5 105.5 C 132.5 119.8 121.6 131.3 107.7 137.2 C 106 138 104.3 138.6 102.5 139.1 L 104.4 145.1 z M 107.2 154.2 C 109.2 153.6 111.2 152.89999999999998 113 152.1 C 131.7 144.5 146.5 129 152.9 109.69999999999999 C 153.6 107.79999999999998 154.1 105.79999999999998 154.6 103.79999999999998 L 148.5 102.39999999999998 C 148.1 103.89999999999998 147.7 105.49999999999997 147.2 106.99999999999997 C 141.39999999999998 125.09999999999997 127.6 139.7 109.99999999999999 146.59999999999997 C 108.49999999999999 147.19999999999996 106.99999999999999 147.69999999999996 105.39999999999999 148.29999999999995 L 107.2 154.2 z M 109.9 163.5 C 113.5 162.4 116.9 161.1 120.2 159.5 C 138.6 151 153.1 135.6 160.6 116.6 C 162 113.19999999999999 163.1 109.69999999999999 163.9 106.1 L 157.8 104.6 C 157.20000000000002 107 156.5 109.39999999999999 155.70000000000002 111.69999999999999 C 148.9 131.2 134.10000000000002 146.89999999999998 115.10000000000002 154.89999999999998 C 112.80000000000003 155.89999999999998 110.40000000000002 156.79999999999998 108.10000000000002 157.49999999999997 L 109.9 163.5 z M 112.7 172.7 C 119.4 170.7 125.7 167.89999999999998 131.6 164.39999999999998 C 146.4 155.79999999999998 158.4 142.99999999999997 166.2 127.69999999999997 C 169.29999999999998 121.59999999999998 171.7 115.09999999999998 173.29999999999998 108.29999999999998 L 167.2 106.79999999999998 C 166.1 111.29999999999998 164.7 115.69999999999999 162.89999999999998 119.89999999999998 C 155.2 137.99999999999997 141.2 152.79999999999998 123.59999999999998 161.59999999999997 C 119.49999999999999 163.59999999999997 115.29999999999998 165.39999999999998 110.79999999999998 166.69999999999996 L 112.7 172.7 z M 115.5 181.9 C 129.8 177.6 142.7 170.1 153.5 160.3 C 157.2 156.9 160.6 153.20000000000002 163.7 149.3 C 172.79999999999998 138.10000000000002 179.39999999999998 124.9 182.79999999999998 110.50000000000001 L 176.7 109.10000000000001 C 174.7 117.60000000000001 171.5 125.70000000000002 167.2 133.20000000000002 C 159.89999999999998 146.10000000000002 149.6 157.00000000000003 137.2 165.00000000000003 C 130 169.70000000000002 122.1 173.40000000000003 113.79999999999998 176.00000000000003 L 115.5 181.9 z M 132.7 210.2 C 130.1 211.2 127.39999999999999 212.1 124.79999999999998 212.89999999999998 L 126.59999999999998 218.89999999999998 L 127.59999999999998 222.09999999999997 L 127.59999999999998 222.29999999999995 L 127.69999999999997 222.09999999999997 L 129.39999999999998 217.99999999999997 L 132.7 210.2 z M 138.1 197.4 C 132.9 199.8 127.5 201.9 122 203.6 L 123.8 209.6 C 127.5 208.5 131.1 207.29999999999998 134.6 205.79999999999998 L 138.1 197.4 z M 144.1 183.3 C 136.4 187.9 128.1 191.70000000000002 119.19999999999999 194.4 L 120.99999999999999 200.4 C 127.59999999999998 198.4 134 195.8 140 192.70000000000002 L 144.1 183.3 z M 155.7 171.1 C 162.7 165.2 169 158.6 174.29999999999998 151.29999999999998 L 169.7 146.99999999999997 L 180.6 141.59999999999997 C 185.7 132.69999999999996 189.7 122.99999999999997 192.1 112.79999999999997 L 185.9 111.39999999999996 C 177.5 146.59999999999997 150.8 174.79999999999995 116.4 185.29999999999995 L 118.2 191.29999999999995 C 128.3 188.29999999999995 137.7 183.79999999999995 146.3 178.09999999999997 L 151 166.89999999999998 L 155.7 171.1 z M 162.7 177.7 C 169.7 171.79999999999998 175.89999999999998 165.2 181.29999999999998 157.89999999999998 L 176.7 153.59999999999997 C 171.29999999999998 160.99999999999997 165.1 167.59999999999997 158.1 173.39999999999998 L 162.7 177.7 z M 169.8 184.3 C 176.70000000000002 178.4 183 171.70000000000002 188.5 164.5 L 183.9 160.2 C 178.4 167.5 172.20000000000002 174.1 165.3 180 L 169.8 184.3 z M 176.9 191 C 183.70000000000002 185.1 190 178.4 195.5 171.2 L 190.9 166.89999999999998 C 185.4 174.2 179.1 180.79999999999998 172.3 186.7 L 176.9 191 z M 183.9 197.6 C 190.70000000000002 191.6 197 185 202.6 177.79999999999998 L 198 173.49999999999997 C 192.5 180.69999999999996 186.2 187.29999999999998 179.4 193.29999999999998 L 183.9 197.6 z M 190.9 204.2 C 197.70000000000002 198.2 203.9 191.6 209.5 184.39999999999998 L 205 180.09999999999997 C 201.3 184.79999999999995 197.3 189.39999999999998 193 193.69999999999996 C 190.9 195.79999999999995 188.7 197.89999999999995 186.4 199.89999999999995 L 190.9 204.2 z M 198 210.8 C 204 205.4 209.6 199.60000000000002 214.7 193.4 L 215.5 194.20000000000002 L 217.5 192.00000000000003 L 216.5 191.10000000000002 L 212 186.8 C 208.2 191.60000000000002 204.2 196.20000000000002 199.8 200.60000000000002 C 197.70000000000002 202.70000000000002 195.60000000000002 204.70000000000002 193.4 206.60000000000002 L 198 210.8 z M 213.6 213 L 212.29999999999998 211.8 L 210.2 214 L 211.5 215.3 L 213.6 213 z M 219.6 202.5 C 221 200.9 222.29999999999998 199.3 223.6 197.7 L 219.1 193.39999999999998 C 215.2 198.2 211 202.89999999999998 206.6 207.29999999999998 C 204.6 209.29999999999998 202.6 211.29999999999998 200.5 213.2 L 205 217.5 C 209.4 213.5 213.6 209.3 217.5 204.8 L 218.7 205.9 L 220.79999999999998 203.70000000000002 L 219.6 202.5 z M 238.7 224.5 C 235.39999999999998 228.2 231.89999999999998 231.8 228.39999999999998 235.2 L 229.49999999999997 236.2 L 227.39999999999998 238.39999999999998 L 228.7 239.59999999999997 C 230.2 238.19999999999996 231.7 236.79999999999995 233.2 235.29999999999995 L 232.6 234.79999999999995 L 234.7 232.59999999999997 L 235.29999999999998 233.19999999999996 C 237.29999999999998 231.09999999999997 239.29999999999998 229.09999999999997 241.2 226.89999999999995 L 238.7 224.5 z M 244.7 217.5 C 243.39999999999998 219.1 242.1 220.7 240.7 222.2 L 243.2 224.6 C 244.6 223.1 245.89999999999998 221.5 247.2 219.9 L 244.7 217.5 z M 240.2 213.3 L 237.7 210.9 C 232 217.9 225.7 224.6 219.1 230.70000000000002 L 221.6 233.00000000000003 C 223.5 231.30000000000004 225.29999999999998 229.60000000000002 227.1 227.80000000000004 C 231.7 223.2 236.1 218.3 240.2 213.3 z M 249.2 250.7 L 250.39999999999998 251.89999999999998 L 252.49999999999997 249.7 L 251.29999999999998 248.5 L 249.2 250.7 z M 256.9 249.3 L 263.7 255.8 L 265.8 253.60000000000002 L 259 247 L 256.9 249.3 z M 266.7 238.3 L 264 235.70000000000002 L 261.9 237.9 L 264.59999999999997 240.5 L 266.7 238.3 z M 206.1 214.4 L 203.79999999999998 212.20000000000002 L 201.7 214.4 L 204 216.6 L 206.1 214.4 z" stroke-linecap="round" />
</g>
</g>
</g>
<g transform="matrix(1.9211538461538462 0 0 1.9211538461538462 640.0000000000003 689.36118653933)" id="text-logo-path-group"  >
<g style=""  paint-order="stroke"   >
		<g transform="matrix(1 0 0 1 0 0)" id="text-logo-path-0"  >
<path style="stroke: none; stroke-width: 0; stroke-dasharray: none; stroke-linecap: butt; stroke-dashoffset: 0; stroke-linejoin: miter; stroke-miterlimit: 4; fill: rgb(2,34,129); fill-rule: nonzero; opacity: 1;"  paint-order="stroke"  transform=" translate(-310.04999999999995, 17.125)" d="M 30.38 0 L 30.38 -23.86 C 30.38 -29.79 25.87 -34.3 19.94 -34.3 L 12.4 -34.3 C 6.47 -34.3 1.96 -29.79 1.96 -23.86 L 1.96 0 L 8.82 0 L 8.82 -23.86 C 8.82 -26.46 9.8 -27.44 12.4 -27.44 L 19.94 -27.44 C 22.54 -27.44 23.52 -26.46 23.52 -23.86 L 23.52 -20.58 L 11.27 -20.58 L 11.27 -13.72 L 23.52 -13.72 L 23.52 0 Z M 49.74 0 L 49.74 -11.27 L 42.88 -11.27 L 42.88 0 Z M 42.88 -13.72 L 49.74 -13.72 L 49.74 -23.86 C 49.74 -26.46 50.72 -27.44 53.31 -27.44 L 60.86 -27.44 C 63.46 -27.44 64.44 -26.46 64.44 -23.86 L 64.44 0 L 71.3 0 L 71.3 -23.86 C 71.3 -29.79 66.79 -34.3 60.86 -34.3 L 53.31 -34.3 C 47.38 -34.3 42.88 -29.79 42.88 -23.86 Z M 83.79 -11.27 L 83.79 0 L 101.77 0 C 107.7 0 112.21 -4.51 112.21 -10.44 L 112.21 -23.86 C 112.21 -29.79 107.7 -34.3 101.77 -34.3 L 83.79 -34.3 L 83.79 -13.72 L 90.65 -13.72 L 90.65 -27.44 L 101.77 -27.44 C 104.37 -27.44 105.35 -26.46 105.35 -23.86 L 105.35 -10.44 C 105.35 -7.84 104.37 -6.86 101.77 -6.86 L 90.65 -6.86 L 90.65 -11.27 Z M 124.71 -13.72 L 142.69 -13.72 C 145.29 -13.72 146.27 -12.74 146.27 -10.14 L 146.27 0 L 153.13 0 L 153.13 -10.14 C 153.13 -12.84 152.19 -15.29 150.58 -17.1 C 152.19 -18.87 153.13 -21.22 153.13 -23.86 C 153.13 -29.79 148.62 -34.3 142.69 -34.3 L 124.71 -34.3 Z M 124.71 0 L 131.57 0 L 131.57 -11.27 L 124.71 -11.27 Z M 131.57 -20.58 L 131.57 -27.44 L 142.69 -27.44 C 145.29 -27.44 146.27 -26.46 146.27 -23.86 C 146.27 -21.46 145.33 -20.58 142.69 -20.58 Z M 194.04 -6.81 L 176.06 -6.81 C 173.46 -6.81 172.48 -7.79 172.48 -10.39 L 172.48 -11.27 L 165.62 -11.27 L 165.62 -10.39 C 165.62 -4.46 170.13 0.05 176.06 0.05 L 194.04 0.05 Z M 165.62 -13.72 L 190.61 -13.72 L 190.61 -20.58 L 172.48 -20.58 L 172.48 -27.44 L 194.04 -27.44 L 194.04 -34.3 L 165.62 -34.3 Z M 206.54 -34.3 L 206.54 0 L 213.4 0 L 213.4 -34.3 Z M 272.69 0 L 272.69 -23.86 C 272.69 -29.79 268.18 -34.3 262.25 -34.3 L 254.7 -34.3 C 248.77 -34.3 244.27 -29.79 244.27 -23.86 L 244.27 0 L 251.13 0 L 251.13 -23.86 C 251.13 -26.46 252.11 -27.44 254.7 -27.44 L 262.25 -27.44 C 264.85 -27.44 265.82 -26.46 265.82 -23.86 L 265.82 -20.58 L 253.58 -20.58 L 253.58 -13.72 L 265.82 -13.72 L 265.82 0 Z M 313.6 -23.03 L 313.6 -23.86 C 313.6 -29.79 309.09 -34.3 303.16 -34.3 L 295.62 -34.3 C 289.69 -34.3 285.18 -29.79 285.18 -23.86 L 285.18 -10.44 C 285.18 -4.51 289.69 0 295.62 0 L 303.16 0 C 309.09 0 313.6 -4.51 313.6 -10.44 L 313.6 -11.32 L 306.74 -11.32 L 306.74 -10.44 C 306.74 -7.84 305.76 -6.86 303.16 -6.86 L 295.62 -6.86 C 293.02 -6.86 292.04 -7.84 292.04 -10.44 L 292.04 -23.86 C 292.04 -26.46 293.02 -27.44 295.62 -27.44 L 303.16 -27.44 C 305.76 -27.44 306.74 -26.46 306.74 -23.86 L 306.74 -23.03 Z M 326.09 -34.3 L 326.09 0 L 332.95 0 L 332.95 -34.3 Z M 352.31 -13.72 L 352.31 -23.86 C 352.31 -26.46 353.29 -27.44 355.89 -27.44 L 363.43 -27.44 C 366.03 -27.44 367.01 -26.46 367.01 -23.86 L 367.01 -10.44 C 367.01 -7.84 366.03 -6.86 363.43 -6.86 L 355.89 -6.86 C 353.29 -6.86 352.31 -7.84 352.31 -10.44 L 352.31 -11.27 L 345.45 -11.27 L 345.45 -10.44 C 345.45 -4.51 349.96 0 355.89 0 L 363.43 0 C 369.36 0 373.87 -4.51 373.87 -10.44 L 373.87 -23.86 C 373.87 -29.79 369.36 -34.3 363.43 -34.3 L 355.89 -34.3 C 349.96 -34.3 345.45 -29.79 345.45 -23.86 L 345.45 -13.72 Z M 386.36 -13.72 L 404.35 -13.72 C 406.94 -13.72 407.92 -12.74 407.92 -10.14 C 407.92 -7.74 406.99 -6.86 404.35 -6.86 L 393.22 -6.86 L 393.22 -11.27 L 386.36 -11.27 L 386.36 0 L 404.35 0 C 410.23 0 414.78 -4.31 414.78 -10.14 C 414.78 -13.57 413.27 -16.56 410.82 -18.42 C 411.8 -19.99 412.33 -21.85 412.33 -23.86 C 412.33 -29.79 407.83 -34.3 401.9 -34.3 L 386.36 -34.3 Z M 393.22 -20.58 L 393.22 -27.44 L 401.9 -27.44 C 404.49 -27.44 405.47 -26.46 405.47 -23.86 C 405.47 -21.46 404.54 -20.58 401.9 -20.58 Z M 455.7 0 L 455.7 -23.86 C 455.7 -29.79 451.19 -34.3 445.26 -34.3 L 437.72 -34.3 C 431.79 -34.3 427.28 -29.79 427.28 -23.86 L 427.28 0 L 434.14 0 L 434.14 -23.86 C 434.14 -26.46 435.12 -27.44 437.72 -27.44 L 445.26 -27.44 C 447.86 -27.44 448.84 -26.46 448.84 -23.86 L 448.84 -20.58 L 436.59 -20.58 L 436.59 -13.72 L 448.84 -13.72 L 448.84 0 Z M 475.05 0 L 475.05 -11.27 L 468.19 -11.27 L 468.19 0 Z M 468.19 -13.72 L 475.05 -13.72 L 475.05 -23.86 C 475.05 -26.46 476.03 -27.44 478.63 -27.44 L 486.18 -27.44 C 488.77 -27.44 489.75 -26.46 489.75 -23.86 L 489.75 0 L 496.61 0 L 496.61 -23.86 C 496.61 -29.79 492.11 -34.3 486.18 -34.3 L 478.63 -34.3 C 472.7 -34.3 468.19 -29.79 468.19 -23.86 Z M 509.11 -34.3 L 509.11 0 L 515.97 0 L 515.97 -34.3 Z M 539.73 -24.99 L 539.73 0 L 546.59 0 L 546.59 -24.99 Z M 528.46 -27.44 L 557.86 -27.44 L 557.86 -34.3 L 528.46 -34.3 Z M 598.78 -6.81 L 580.8 -6.81 C 578.2 -6.81 577.22 -7.79 577.22 -10.39 L 577.22 -11.27 L 570.36 -11.27 L 570.36 -10.39 C 570.36 -4.46 574.87 0.05 580.8 0.05 L 598.78 0.05 Z M 570.36 -13.72 L 595.35 -13.72 L 595.35 -20.58 L 577.22 -20.58 L 577.22 -27.44 L 598.78 -27.44 L 598.78 -34.3 L 570.36 -34.3 Z M 611.28 -34.3 L 611.28 0 L 618.14 0 L 618.14 -34.3 Z" stroke-linecap="round" />
</g>
</g>
</g>
<g transform="matrix(1.9211538461538462 0 0 1.9211538461538462 640.321294466248 785.2063992316379)" id="tagline-2febae72-c558-4448-a7bc-2d4924160213-logo-path-group"  >
<g style=""  paint-order="stroke"   >
		<g transform="matrix(1 0 0 1 0 0)" id="tagline-2febae72-c558-4448-a7bc-2d4924160213-logo-path-0"  >
<path style="stroke: none; stroke-width: 0; stroke-dasharray: none; stroke-linecap: butt; stroke-dashoffset: 0; stroke-linejoin: miter; stroke-miterlimit: 4; fill: rgb(2,34,129); fill-rule: nonzero; opacity: 1;"  paint-order="stroke"  transform=" translate(-146.57500000000002, 11.675)" d="M 3.67 -12.17 L 12.21 -12.17 C 14.99 -12.17 17 -10.17 17 -7.41 C 17 -4.45 14.99 -2.48 12.21 -2.48 L 3.57 -2.48 L 3.57 -12.17 Z M 1.36 -2.04 C 1.36 -1.05 2.14 -0.27 3.13 -0.27 L 12.21 -0.27 C 16.05 -0.27 19.21 -3.4 19.21 -7.41 C 19.21 -10.03 17.71 -12.34 15.54 -13.53 C 16.76 -14.59 17.54 -16.15 17.54 -17.92 C 17.54 -21.01 14.99 -23.56 11.9 -23.56 L 3.13 -23.56 C 2.14 -23.56 1.36 -22.75 1.36 -21.76 Z M 3.57 -14.38 L 3.57 -21.35 L 11.9 -21.35 C 13.94 -21.35 15.33 -19.96 15.33 -17.92 C 15.33 -15.78 13.91 -14.38 11.9 -14.38 L 3.67 -14.38 Z M 45.08 -2.48 L 32.57 -2.48 L 32.57 -10.81 L 41.68 -10.81 C 42.3 -10.81 42.77 -11.29 42.77 -11.9 C 42.77 -12.51 42.3 -13.02 41.68 -13.02 L 32.57 -13.02 L 32.57 -21.35 L 45.08 -21.35 C 45.7 -21.35 46.17 -21.83 46.17 -22.44 C 46.17 -23.05 45.7 -23.56 45.08 -23.56 L 32.13 -23.56 C 31.14 -23.56 30.36 -22.75 30.36 -21.76 L 30.36 -2.04 C 30.36 -1.05 31.14 -0.27 32.13 -0.27 L 45.08 -0.27 C 45.7 -0.24 46.17 -0.75 46.17 -1.36 C 46.17 -1.97 45.7 -2.48 45.08 -2.48 Z M 94.59 -5.58 C 92.79 -3.6 90.47 -2.48 87.62 -2.48 C 82.18 -2.48 78.17 -6.49 78.17 -11.93 C 78.17 -17.31 82.18 -21.35 87.62 -21.35 C 89.86 -21.35 91.8 -20.6 93.43 -19.31 C 93.6 -19.14 93.84 -19.07 94.11 -19.07 C 94.72 -19.07 95.23 -19.55 95.23 -20.16 C 95.23 -20.5 95.06 -20.81 94.79 -21.01 C 92.85 -22.58 90.3 -23.56 87.62 -23.56 C 81.12 -23.56 75.96 -18.36 75.96 -11.93 C 75.96 -5.44 81.12 -0.27 87.62 -0.27 C 91.02 -0.27 94.08 -1.73 96.22 -4.08 C 96.39 -4.28 96.53 -4.56 96.53 -4.83 C 96.53 -5.44 96.02 -5.95 95.4 -5.95 C 95.06 -5.95 94.79 -5.78 94.59 -5.58 Z M 123.73 -2.04 L 118.9 -8.67 C 121.96 -9.62 124.2 -12.51 124.2 -15.98 C 124.2 -20.16 120.8 -23.56 116.62 -23.56 L 109.45 -23.56 C 108.46 -23.56 107.68 -22.75 107.68 -21.76 L 107.68 -1.36 C 107.68 -0.75 108.15 -0.27 108.77 -0.27 C 109.38 -0.27 109.89 -0.75 109.89 -1.36 L 109.89 -8.33 L 110.02 -8.33 L 116.42 -8.33 L 121.96 -0.71 C 122.16 -0.44 122.47 -0.27 122.84 -0.27 C 123.45 -0.27 123.93 -0.78 123.93 -1.39 C 123.93 -1.63 123.86 -1.87 123.73 -2.04 Z M 109.89 -10.54 L 109.89 -21.35 L 116.62 -21.35 C 119.75 -21.35 121.99 -19.11 121.99 -15.98 C 121.99 -12.75 119.75 -10.54 116.62 -10.54 L 110.02 -10.54 Z M 150.08 -2.48 L 137.56 -2.48 L 137.56 -10.81 L 146.68 -10.81 C 147.29 -10.81 147.76 -11.29 147.76 -11.9 C 147.76 -12.51 147.29 -13.02 146.68 -13.02 L 137.56 -13.02 L 137.56 -21.35 L 150.08 -21.35 C 150.69 -21.35 151.16 -21.83 151.16 -22.44 C 151.16 -23.05 150.69 -23.56 150.08 -23.56 L 137.12 -23.56 C 136.14 -23.56 135.35 -22.75 135.35 -21.76 L 135.35 -2.04 C 135.35 -1.05 136.14 -0.27 137.12 -0.27 L 150.08 -0.27 C 150.69 -0.24 151.16 -0.75 151.16 -1.36 C 151.16 -1.97 150.69 -2.48 150.08 -2.48 Z M 182.75 -1.8 L 174.56 -22.13 C 173.81 -23.97 171.36 -23.97 170.61 -22.13 L 162.42 -1.8 C 162.35 -1.67 162.32 -1.53 162.32 -1.36 C 162.32 -0.75 162.83 -0.27 163.44 -0.27 C 163.88 -0.27 164.29 -0.54 164.46 -0.92 L 166.16 -5.17 L 179.01 -5.17 L 180.71 -0.92 C 180.88 -0.54 181.29 -0.27 181.73 -0.27 C 182.34 -0.27 182.85 -0.75 182.85 -1.36 C 182.85 -1.53 182.82 -1.67 182.75 -1.8 Z M 167.04 -7.38 L 172.58 -21.15 L 178.13 -7.38 Z M 198.59 -1.33 L 198.59 -21.35 L 204.95 -21.35 C 205.56 -21.35 206.07 -21.83 206.07 -22.44 C 206.07 -23.05 205.56 -23.56 204.95 -23.56 L 189.99 -23.56 C 189.38 -23.56 188.9 -23.05 188.9 -22.44 C 188.9 -21.83 189.38 -21.35 189.99 -21.35 L 196.38 -21.35 L 196.38 -1.33 C 196.38 -0.71 196.86 -0.24 197.47 -0.24 C 198.08 -0.24 198.59 -0.71 198.59 -1.33 Z M 219.44 -1.36 L 219.44 -22.44 C 219.44 -23.05 218.93 -23.56 218.31 -23.56 C 217.7 -23.56 217.23 -23.05 217.23 -22.44 L 217.23 -1.36 C 217.23 -0.75 217.7 -0.27 218.31 -0.27 C 218.93 -0.27 219.44 -0.75 219.44 -1.36 Z M 230.69 -22.03 L 238.88 -1.63 C 239.63 0.2 242.08 0.2 242.83 -1.63 L 251.02 -22.03 C 251.09 -22.17 251.12 -22.3 251.12 -22.47 C 251.12 -23.09 250.61 -23.56 250 -23.56 C 249.56 -23.56 249.15 -23.29 248.98 -22.92 L 240.86 -2.62 L 232.73 -22.92 C 232.56 -23.29 232.15 -23.56 231.71 -23.56 C 231.1 -23.56 230.59 -23.09 230.59 -22.47 C 230.59 -22.3 230.62 -22.17 230.69 -22.03 Z M 277 -2.48 L 264.49 -2.48 L 264.49 -10.81 L 273.6 -10.81 C 274.21 -10.81 274.69 -11.29 274.69 -11.9 C 274.69 -12.51 274.21 -13.02 273.6 -13.02 L 264.49 -13.02 L 264.49 -21.35 L 277 -21.35 C 277.61 -21.35 278.09 -21.83 278.09 -22.44 C 278.09 -23.05 277.61 -23.56 277 -23.56 L 264.04 -23.56 C 263.06 -23.56 262.28 -22.75 262.28 -21.76 L 262.28 -2.04 C 262.28 -1.05 263.06 -0.27 264.04 -0.27 L 277 -0.27 C 277.61 -0.24 278.09 -0.75 278.09 -1.36 C 278.09 -1.97 277.61 -2.48 277 -2.48 Z M 291.62 -6.09 L 291.62 -22.58 C 291.62 -23.19 291.11 -23.66 290.5 -23.66 C 289.88 -23.66 289.41 -23.19 289.41 -22.58 L 289.41 -6.09 C 289.41 -5.47 289.88 -5 290.5 -5 C 291.11 -5 291.62 -5.47 291.62 -6.09 Z M 289.24 -0.99 C 289.24 -0.27 289.78 0.31 290.5 0.31 C 291.21 0.31 291.79 -0.27 291.79 -0.99 L 291.79 -1.22 C 291.79 -1.94 291.21 -2.52 290.5 -2.52 C 289.78 -2.52 289.24 -1.94 289.24 -1.22 Z" stroke-linecap="round" />
</g>
</g>
</g>
</svg>